<?xml version="1.0" encoding="UTF-8" standalone="no"?>
<svg width="369px" height="775px" viewBox="0 0 369 775" version="1.1" xmlns="http://www.w3.org/2000/svg">
  <path d="M5.00904977,273.922414 L0,273.922414 L0,245.528017 L5.00904977,245.528017 L5.00904977,210.452586 L0,210.452586 L0,182.05819 L5.00904977,182.05819 L5.00904977,145.3125 L0,145.3125 L0,110.237069 L5.00904977,110.237069 L5.00904977,56.7986187 C5.00904977,27.280925 28.9236915,3.34051724 58.4238971,3.34051724 L248.782805,3.34051724 L248.782805,0 L308.891403,0 L308.891403,3.34051724 L315.585153,3.34051724 C345.082378,3.34051724 369,27.2745246 369,56.7986187 L369,721.541898 C369,751.059592 345.085359,775 315.585153,775 L58.4238971,775 C28.9266705,775 5.00904977,751.065992 5.00904977,721.541898 L5.00904977,273.922414 L5.00904977,273.922414 Z M30.0450564,110.237069 C28.2058796,110.237069 26.7149321,111.744434 26.7149321,113.593711 L26.7149321,666.417065 C26.7149321,668.270887 28.2155646,669.773707 30.0450564,669.773707 L343.963993,669.773707 C345.803171,669.773707 347.294118,668.266342 347.294118,666.417065 L347.294118,113.593711 C347.294118,111.739889 345.793485,110.237069 343.963993,110.237069 L30.0450564,110.237069 L30.0450564,110.237069 Z M187.004525,751.616379 C204.525198,751.616379 218.728507,737.408176 218.728507,719.881466 C218.728507,702.354755 204.525198,688.146552 187.004525,688.146552 C169.483852,688.146552 155.280543,702.354755 155.280543,719.881466 C155.280543,737.408176 169.483852,751.616379 187.004525,751.616379 L187.004525,751.616379 Z M187.004525,748.275862 C202.680916,748.275862 215.38914,735.563258 215.38914,719.881466 C215.38914,704.199673 202.680916,691.487069 187.004525,691.487069 C171.328134,691.487069 158.61991,704.199673 158.61991,719.881466 C158.61991,735.563258 171.328134,748.275862 187.004525,748.275862 L187.004525,748.275862 Z M156.965003,66.8103448 C156.034701,66.8103448 155.280543,67.5508593 155.280543,68.4962519 L155.280543,71.8054722 C155.280543,72.7365731 156.033324,73.4913793 156.949583,73.4913793 L194.359321,73.4913793 L215.375913,73.4913793 C216.305359,73.4913793 217.058824,72.7508648 217.058824,71.8054722 L217.058824,68.4962519 C217.058824,67.5651511 216.321987,66.8103448 215.374364,66.8103448 L156.965003,66.8103448 L156.965003,66.8103448 Z M135.244344,75.1616379 C138.010766,75.1616379 140.253394,72.9182372 140.253394,70.1508621 C140.253394,67.3834869 138.010766,65.1400862 135.244344,65.1400862 C132.477922,65.1400862 130.235294,67.3834869 130.235294,70.1508621 C130.235294,72.9182372 132.477922,75.1616379 135.244344,75.1616379 L135.244344,75.1616379 Z M186.169683,48.4375 C190.319315,48.4375 193.683258,45.0723991 193.683258,40.9213362 C193.683258,36.7702734 190.319315,33.4051724 186.169683,33.4051724 C182.020051,33.4051724 178.656109,36.7702734 178.656109,40.9213362 C178.656109,45.0723991 182.020051,48.4375 186.169683,48.4375 L186.169683,48.4375 Z"
        fill="#f6f6f6" stroke="#ccc"/>
</svg>
